<?xml version="1.0" standalone="no"?>
<!DOCTYPE svg PUBLIC "-//W3C//DTD SVG 20010904//EN"
 "http://www.w3.org/TR/2001/REC-SVG-20010904/DTD/svg10.dtd">
<svg version="1.0" xmlns="http://www.w3.org/2000/svg"
 width="700.000000pt" height="700.000000pt" viewBox="0 0 700.000000 700.000000"
 preserveAspectRatio="xMidYMid meet">
<metadata>
Created by potrace 1.11, written by Peter Selinger 2001-2013
</metadata>
<g transform="translate(0.000000,700.000000) scale(0.100000,-0.100000)"
fill="#000000" stroke="none">
<path d="M1898 6698 c-7 -18 9 -213 22 -273 6 -27 13 -66 16 -85 22 -138 140
-390 254 -542 165 -219 384 -407 712 -609 l137 -84 -35 -20 c-99 -56 -309
-194 -398 -262 -328 -249 -530 -513 -634 -828 -109 -333 -100 -749 25 -1065
134 -341 391 -630 788 -885 50 -31 101 -65 115 -74 28 -17 61 -36 103 -58 15
-8 27 -18 27 -23 0 -4 -26 -23 -57 -40 -90 -50 -239 -148 -339 -221 -422 -310
-647 -646 -718 -1073 -3 -16 -8 -68 -11 -115 -4 -47 -8 -101 -9 -119 l-3 -32
218 0 c162 1 219 4 220 13 0 7 2 30 4 52 7 88 14 145 24 184 6 23 15 58 21 79
l10 38 1109 0 1110 0 20 -75 c19 -72 31 -148 36 -236 2 -22 3 -43 4 -47 1 -4
99 -6 218 -5 l218 2 -3 65 c-14 426 -190 792 -533 1106 -120 110 -347 272
-523 372 l-86 50 112 68 c122 73 322 208 348 234 3 3 37 31 76 62 103 84 250
240 326 346 70 98 153 251 183 337 9 28 21 59 25 70 12 29 47 182 54 235 4 25
9 63 12 85 14 104 5 362 -16 460 -5 22 -12 56 -15 75 -11 66 -67 225 -113 320
-118 242 -293 443 -565 648 -100 76 -289 200 -384 252 l-43 23 63 38 c147 89
414 271 437 298 3 3 34 30 68 60 301 256 487 565 551 915 9 50 21 180 25 266
l1 25 -217 3 c-120 1 -218 -1 -219 -5 -1 -5 -2 -26 -4 -48 -1 -22 -5 -67 -9
-100 -7 -56 -12 -80 -36 -173 l-10 -38 -1110 1 -1111 0 -5 25 c-3 14 -9 34
-12 45 -19 65 -33 160 -37 245 l-1 45 -216 3 c-167 2 -217 0 -220 -10z m2412
-799 c0 -6 -58 -61 -111 -104 -52 -43 -168 -125 -254 -180 -141 -90 -125 -81
-332 -195 l-122 -68 -168 97 c-296 170 -470 288 -602 408 l-54 49 822 0 c451
0 821 -3 821 -7z m-651 -1131 c303 -169 513 -312 639 -433 l32 -32 -832 0
-832 0 54 49 c30 28 93 79 140 114 47 35 90 67 95 72 67 55 514 311 544 312 8
0 80 -37 160 -82z m968 -943 c11 -36 19 -75 38 -185 9 -48 9 -213 0 -280 -7
-63 -29 -164 -43 -200 l-10 -25 -1106 0 c-686 1 -1109 5 -1115 10 -4 6 -16 41
-25 79 -42 171 -41 391 3 560 12 44 21 80 21 80 0 1 501 1 1113 1 l1112 0 12
-40z m-297 -1133 c0 -4 -12 -17 -27 -30 -16 -13 -44 -38 -63 -55 -39 -35 -111
-94 -146 -117 -167 -113 -270 -176 -454 -277 l-135 -75 -90 46 c-49 26 -103
54 -120 64 -16 9 -57 33 -90 51 -152 87 -363 233 -445 307 -19 18 -47 43 -62
56 -16 13 -28 26 -28 30 0 3 374 6 830 6 457 -1 830 -3 830 -6z m-721 -1109
c260 -139 527 -313 628 -410 7 -6 23 -20 35 -30 64 -52 114 -49 -772 -49 -492
0 -816 4 -813 9 30 49 286 238 468 346 132 78 333 189 344 191 2 0 52 -26 110
-57z"/>
</g>
</svg>
